{
  "accessors": [
    {
      "bufferView": 2,
      "componentType": 5126,
      "count": 3195,
      "max": [
        106.92903900146484,
        456.0404052734375,
        96.78602600097656
      ],
      "min": [
        -100.65469360351563,
        -34.97576904296875,
        -138.9454345703125
      ],
      "type": "VEC3"
    },
    {
      "bufferView": 2,
      "byteOffset": 38340,
      "componentType": 5126,
      "count": 3195,
      "max": [
        1.0,
        1.0,
        1.0
      ],
      "min": [
        -1.0,
        -1.0,
        -1.0
      ],
      "type": "VEC3"
    },
    {
      "bufferView": 3,
      "componentType": 5126,
      "count": 3195,
      "max": [
        1.0,
        1.0,
        1.0,
        1.0
      ],
      "min": [
        -1.0,
        -1.0,
        -1.0,
        -1.0
      ],
      "type": "VEC4"
    },
    {
      "bufferView": 1,
      "componentType": 5126,
      "count": 3195,
      "max": [
        0.9967929720878601,
        0.9805639982223511
      ],
      "min": [
        0.003206999972462654,
        0.003206999972462654
      ],
      "type": "VEC2"
    },
    {
      "bufferView": 0,
      "componentType": 5125,
      "count": 10434,
      "type": "SCALAR"
    }
  ],
  "asset": {
    "extras": {
      "author": "xjm0813 (https://sketchfab.com/xjm0813)",
      "license": "CC-BY-4.0 (http://creativecommons.org/licenses/by/4.0/)",
      "source": "https://sketchfab.com/3d-models/digital-microscope-5ef99943bd1140d7b91fc827c7e0fb9f",
      "title": "Digital Microscope"
    },
    "generator": "Sketchfab-15.25.0",
    "version": "2.0"
  },
  "bufferViews": [
    {
      "buffer": 0,
      "byteLength": 41736,
      "name": "floatBufferViews",
      "target": 34963
    },
    {
      "buffer": 0,
      "byteLength": 25560,
      "byteOffset": 41736,
      "byteStride": 8,
      "name": "floatBufferViews",
      "target": 34962
    },
    {
      "buffer": 0,
      "byteLength": 76680,
      "byteOffset": 67296,
      "byteStride": 12,
      "name": "floatBufferViews",
      "target": 34962
    },
    {
      "buffer": 0,
      "byteLength": 51120,
      "byteOffset": 143976,
      "byteStride": 16,
      "name": "floatBufferViews",
      "target": 34962
    }
  ],
  "buffers": [
    {
      "byteLength": 195096,
      "uri": "ltf.bin"
    }
  ],
  "images": [
    {
      "uri": "textures/Digital_Microscope_baseColor.jpeg"
    },
    {
      "uri": "textures/Digital_Microscope_metallicRoughness.png"
    },
    {
      "uri": "textures/Digital_Microscope_normal.png"
    }
  ],
  "materials": [
    {
      "doubleSided": true,
      "name": "Digital_Microscope",
      "normalTexture": {
        "index": 2
      },
      "occlusionTexture": {
        "index": 1
      },
      "pbrMetallicRoughness": {
        "baseColorTexture": {
          "index": 0
        },
        "metallicRoughnessTexture": {
          "index": 1
        }
      }
    }
  ],
  "meshes": [
    {
      "name": "defaultMaterial",
      "primitives": [
        {
          "attributes": {
            "NORMAL": 1,
            "POSITION": 0,
            "TANGENT": 2,
            "TEXCOORD_0": 3
          },
          "indices": 4,
          "material": 0,
          "mode": 4
        }
      ]
    }
  ],
  "nodes": [
    {
      "children": [
        1
      ],
      "matrix": [
        0.0010504575911909342,
        0.0,
        0.0,
        0.0,
        0.0,
        2.3324844082649103e-19,
        -0.0010504575911909342,
        0.0,
        0.0,
        0.0010504575911909342,
        2.3324844082649103e-19,
        0.0,
        0.0,
        0.0,
        0.0,
        1.0
      ],
      "name": "Sketchfab_model"
    },
    {
      "children": [
        2
      ],
      "matrix": [
        1.0,
        0.0,
        0.0,
        0.0,
        0.0,
        -4.371139006309477e-08,
        0.999999999999999,
        0.0,
        0.0,
        -0.999999999999999,
        -4.371139006309477e-08,
        0.0,
        0.0,
        0.0,
        0.0,
        1.0
      ],
      "name": "Collada visual scene group"
    },
    {
      "children": [
        3
      ],
      "matrix": [
        1.0,
        0.0,
        0.0,
        0.0,
        0.0,
        1.0,
        0.0,
        0.0,
        0.0,
        0.0,
        1.0,
        0.0,
        0.0,
        30.6628,
        0.0,
        1.0
      ],
      "name": "Digital"
    },
    {
      "mesh": 0,
      "name": "defaultMaterial"
    }
  ],
  "samplers": [
    {
      "magFilter": 9729,
      "minFilter": 9987,
      "wrapS": 10497,
      "wrapT": 10497
    }
  ],
  "scene": 0,
  "scenes": [
    {
      "name": "Sketchfab_Scene",
      "nodes": [
        0
      ]
    }
  ],
  "textures": [
    {
      "sampler": 0,
      "source": 0
    },
    {
      "sampler": 0,
      "source": 1
    },
    {
      "sampler": 0,
      "source": 2
    }
  ]
}
